<?xml version="1.0" encoding="UTF-8"?><svg id="Layer_1" xmlns="http://www.w3.org/2000/svg" viewBox="0 0 200 200"><g id="Document_icon"><g><rect x="161.9" y="161.9" width="9.53" height="9.53"/><rect x="161.9" y="152.38" width="9.53" height="9.52"/><rect x="161.9" y="142.86" width="9.53" height="9.52"/><rect x="161.9" y="133.33" width="9.53" height="9.53"/><rect x="161.9" y="123.81" width="9.53" height="9.52"/><rect x="161.9" y="114.29" width="9.53" height="9.52"/><rect x="161.9" y="104.76" width="9.53" height="9.53"/><rect x="161.9" y="95.24" width="9.53" height="9.52"/><rect x="161.9" y="85.71" width="9.53" height="9.53"/><rect x="161.9" y="76.19" width="9.53" height="9.52"/><rect x="161.9" y="66.67" width="9.53" height="9.52"/><rect x="161.9" y="57.14" width="9.53" height="9.53"/><rect x="161.9" y="47.62" width="9.53" height="9.52"/><rect x="161.9" y="38.1" width="9.53" height="9.52"/><rect x="152.38" y="171.43" width="9.52" height="9.52"/><rect x="152.38" y="161.9" width="9.52" height="9.53"/><rect x="152.38" y="57.14" width="9.52" height="9.53"/><rect x="152.38" y="38.1" width="9.52" height="9.52"/><rect x="152.38" y="28.57" width="9.52" height="9.53"/><rect x="142.86" y="180.95" width="9.52" height="9.53"/><rect x="142.86" y="171.43" width="9.52" height="9.52"/><rect x="142.86" y="57.14" width="9.52" height="9.53"/><rect x="142.86" y="28.57" width="9.52" height="9.53"/><rect x="142.86" y="19.05" width="9.52" height="9.52"/><rect x="133.33" y="180.95" width="9.53" height="9.53"/><rect x="133.33" y="142.86" width="9.53" height="9.52"/><rect x="133.33" y="104.76" width="9.53" height="9.53"/><rect x="133.33" y="57.14" width="9.53" height="9.53"/><rect x="133.33" y="19.05" width="9.53" height="9.52"/><rect x="133.33" y="9.52" width="9.53" height="9.53"/><rect x="123.81" y="180.95" width="9.52" height="9.53"/><rect x="123.81" y="142.86" width="9.52" height="9.52"/><rect x="123.81" y="104.76" width="9.52" height="9.53"/><rect x="123.81" y="57.14" width="9.52" height="9.53"/><rect x="123.81" y="47.62" width="9.52" height="9.52"/><rect x="123.81" y="9.52" width="9.52" height="9.53"/><rect x="114.29" y="180.95" width="9.52" height="9.53"/><rect x="114.29" y="142.86" width="9.52" height="9.52"/><rect x="114.29" y="104.76" width="9.52" height="9.53"/><rect x="114.29" y="47.62" width="9.52" height="9.52"/><rect x="114.29" y="38.1" width="9.52" height="9.52"/><rect x="114.29" y="28.57" width="9.52" height="9.53"/><rect x="114.29" y="19.05" width="9.52" height="9.52"/><rect x="114.29" y="9.52" width="9.52" height="9.53"/><rect x="104.76" y="180.95" width="9.53" height="9.53"/><rect x="104.76" y="142.86" width="9.53" height="9.52"/><rect x="104.76" y="104.76" width="9.53" height="9.53"/><rect x="104.76" y="9.52" width="9.53" height="9.53"/><rect x="95.24" y="180.95" width="9.52" height="9.53"/><rect x="95.24" y="142.86" width="9.52" height="9.52"/><rect x="95.24" y="104.76" width="9.52" height="9.53"/><rect x="95.24" y="66.67" width="9.52" height="9.52"/><rect x="95.24" y="9.52" width="9.52" height="9.53"/><rect x="85.71" y="180.95" width="9.53" height="9.53"/><rect x="85.71" y="142.86" width="9.53" height="9.52"/><rect x="85.71" y="104.76" width="9.53" height="9.53"/><rect x="85.71" y="66.67" width="9.53" height="9.52"/><rect x="85.71" y="9.52" width="9.53" height="9.53"/><rect x="76.19" y="180.95" width="9.52" height="9.53"/><rect x="76.19" y="142.86" width="9.52" height="9.52"/><rect x="76.19" y="104.76" width="9.52" height="9.53"/><rect x="76.19" y="66.67" width="9.52" height="9.52"/><rect x="76.19" y="9.52" width="9.52" height="9.53"/><rect x="66.67" y="180.95" width="9.52" height="9.53"/><rect x="66.67" y="142.86" width="9.52" height="9.52"/><rect x="66.67" y="104.76" width="9.52" height="9.53"/><rect x="66.67" y="66.67" width="9.52" height="9.52"/><rect x="66.67" y="9.52" width="9.52" height="9.53"/><rect x="57.14" y="180.95" width="9.53" height="9.53"/><rect x="57.14" y="142.86" width="9.53" height="9.52"/><rect x="57.14" y="104.76" width="9.53" height="9.53"/><rect x="57.14" y="66.67" width="9.53" height="9.52"/><rect x="57.14" y="9.52" width="9.53" height="9.53"/><rect x="47.62" y="180.95" width="9.52" height="9.53"/><rect x="47.62" y="171.43" width="9.52" height="9.52"/><rect x="47.62" y="19.05" width="9.52" height="9.52"/><rect x="47.62" y="9.52" width="9.52" height="9.53"/><rect x="38.1" y="171.43" width="9.52" height="9.52"/><rect x="38.1" y="161.9" width="9.52" height="9.53"/><rect x="38.1" y="28.57" width="9.52" height="9.53"/><rect x="38.1" y="19.05" width="9.52" height="9.52"/><rect x="28.57" y="161.9" width="9.53" height="9.53"/><rect x="28.57" y="152.38" width="9.53" height="9.52"/><rect x="28.57" y="142.86" width="9.53" height="9.52"/><rect x="28.57" y="133.33" width="9.53" height="9.53"/><rect x="28.57" y="123.81" width="9.53" height="9.52"/><rect x="28.57" y="114.29" width="9.53" height="9.52"/><rect x="28.57" y="104.76" width="9.53" height="9.53"/><rect x="28.57" y="95.24" width="9.53" height="9.52"/><rect x="28.57" y="85.71" width="9.53" height="9.53"/><rect x="28.57" y="76.19" width="9.53" height="9.52"/><rect x="28.57" y="66.67" width="9.53" height="9.52"/><rect x="28.57" y="57.14" width="9.53" height="9.53"/><rect x="28.57" y="47.62" width="9.53" height="9.52"/><rect x="28.57" y="38.1" width="9.53" height="9.52"/><rect x="28.57" y="28.57" width="9.53" height="9.53"/></g></g></svg>