<?xml version="1.0" encoding="UTF-8"?><svg id="Layer_1" xmlns="http://www.w3.org/2000/svg" viewBox="0 0 200 200"><rect x="180.95" y="161.9" width="9.53" height="9.53"/><rect x="180.95" y="152.38" width="9.53" height="9.52"/><rect x="180.95" y="142.86" width="9.53" height="9.52"/><rect x="180.95" y="133.33" width="9.53" height="9.53"/><rect x="180.95" y="123.81" width="9.53" height="9.52"/><rect x="180.95" y="114.29" width="9.53" height="9.52"/><rect x="180.95" y="104.76" width="9.53" height="9.53"/><rect x="180.95" y="95.24" width="9.53" height="9.52"/><rect x="180.95" y="85.71" width="9.53" height="9.53"/><rect x="180.95" y="76.19" width="9.53" height="9.52"/><rect x="180.95" y="66.67" width="9.53" height="9.52"/><rect x="171.43" y="171.43" width="9.52" height="9.52"/><rect x="171.43" y="161.9" width="9.52" height="9.53"/><rect x="171.43" y="66.67" width="9.52" height="9.52"/><rect x="171.43" y="57.14" width="9.52" height="9.53"/><rect x="161.91" y="180.95" width="9.52" height="9.53"/><rect x="161.91" y="171.43" width="9.52" height="9.52"/><rect x="161.91" y="57.14" width="9.52" height="9.53"/><rect x="161.91" y="47.62" width="9.52" height="9.52"/><rect x="152.38" y="180.95" width="9.53" height="9.53"/><rect x="152.38" y="47.62" width="9.53" height="9.52"/><rect x="142.86" y="180.95" width="9.52" height="9.53"/><rect x="142.86" y="47.62" width="9.52" height="9.52"/><rect x="133.33" y="180.95" width="9.53" height="9.53"/><rect x="133.33" y="104.76" width="9.53" height="9.53"/><rect x="133.33" y="47.62" width="9.53" height="9.52"/><rect x="123.81" y="180.95" width="9.52" height="9.53"/><rect x="123.81" y="114.29" width="9.52" height="9.52"/><rect x="123.81" y="104.76" width="9.52" height="9.53"/><rect x="123.81" y="47.62" width="9.52" height="9.52"/><rect x="114.29" y="180.95" width="9.52" height="9.53"/><rect x="114.29" y="123.81" width="9.52" height="9.52"/><rect x="114.29" y="114.29" width="9.52" height="9.52"/><rect x="114.29" y="47.62" width="9.52" height="9.52"/><rect x="104.76" y="180.95" width="9.53" height="9.53"/><rect x="104.76" y="133.33" width="9.53" height="9.53"/><rect x="104.76" y="123.81" width="9.53" height="9.52"/><rect x="104.76" y="47.62" width="9.53" height="9.52"/><rect x="95.24" y="180.95" width="9.52" height="9.53"/><rect x="95.24" y="142.86" width="9.52" height="9.52"/><rect x="95.24" y="133.33" width="9.52" height="9.53"/><rect x="95.24" y="123.81" width="9.52" height="9.52"/><rect x="95.24" y="114.29" width="9.52" height="9.52"/><rect x="95.24" y="104.76" width="9.52" height="9.53"/><rect x="95.24" y="95.24" width="9.52" height="9.52"/><rect x="95.24" y="85.71" width="9.52" height="9.53"/><rect x="95.24" y="76.19" width="9.52" height="9.52"/><rect x="95.24" y="66.67" width="9.52" height="9.52"/><rect x="95.24" y="57.14" width="9.52" height="9.53"/><rect x="95.24" y="47.62" width="9.52" height="9.52"/><rect x="95.24" y="38.1" width="9.52" height="9.52"/><rect x="95.24" y="28.57" width="9.52" height="9.53"/><rect x="95.24" y="19.05" width="9.52" height="9.52"/><rect x="95.24" y="9.52" width="9.52" height="9.53"/><rect x="85.72" y="180.95" width="9.52" height="9.53"/><rect x="85.72" y="133.33" width="9.52" height="9.53"/><rect x="85.72" y="123.81" width="9.52" height="9.52"/><rect x="85.72" y="47.62" width="9.52" height="9.52"/><rect x="76.19" y="180.95" width="9.53" height="9.53"/><rect x="76.19" y="123.81" width="9.53" height="9.52"/><rect x="76.19" y="114.29" width="9.53" height="9.52"/><rect x="76.19" y="47.62" width="9.53" height="9.52"/><rect x="66.67" y="180.95" width="9.52" height="9.53"/><rect x="66.67" y="114.29" width="9.52" height="9.52"/><rect x="66.67" y="104.76" width="9.52" height="9.53"/><rect x="66.67" y="47.62" width="9.52" height="9.52"/><rect x="57.14" y="180.95" width="9.53" height="9.53"/><rect x="57.14" y="104.76" width="9.53" height="9.53"/><rect x="57.14" y="47.62" width="9.53" height="9.52"/><rect x="47.62" y="180.95" width="9.52" height="9.53"/><rect x="47.62" y="47.62" width="9.52" height="9.52"/><rect x="38.1" y="180.95" width="9.52" height="9.53"/><rect x="38.1" y="47.62" width="9.52" height="9.52"/><rect x="28.57" y="180.95" width="9.53" height="9.53"/><rect x="28.57" y="171.43" width="9.53" height="9.52"/><rect x="28.57" y="57.14" width="9.53" height="9.53"/><rect x="28.57" y="47.62" width="9.53" height="9.52"/><rect x="19.05" y="171.43" width="9.52" height="9.52"/><rect x="19.05" y="161.9" width="9.52" height="9.53"/><rect x="19.05" y="66.67" width="9.52" height="9.52"/><rect x="19.05" y="57.14" width="9.52" height="9.53"/><rect x="9.53" y="161.9" width="9.52" height="9.53"/><rect x="9.53" y="152.38" width="9.52" height="9.52"/><rect x="9.53" y="142.86" width="9.52" height="9.52"/><rect x="9.53" y="133.33" width="9.52" height="9.53"/><rect x="9.53" y="123.81" width="9.52" height="9.52"/><rect x="9.53" y="114.29" width="9.52" height="9.52"/><rect x="9.53" y="104.76" width="9.52" height="9.53"/><rect x="9.53" y="95.24" width="9.52" height="9.52"/><rect x="9.53" y="85.71" width="9.52" height="9.53"/><rect x="9.53" y="76.19" width="9.52" height="9.52"/><rect x="9.53" y="66.67" width="9.52" height="9.52"/></svg>