<?xml version="1.0" encoding="UTF-8"?><svg id="Layer_1" xmlns="http://www.w3.org/2000/svg" viewBox="0 0 201 201"><defs><style>.cls-1{fill:#f1b9cc;}</style></defs><rect class="cls-1" x="95.74" y="29.07" width="9.52" height="9.52"/><rect class="cls-1" x="105.26" y="48.12" width="9.53" height="9.52"/><rect class="cls-1" x="105.26" y="38.59" width="9.53" height="9.53"/><rect class="cls-1" x="86.22" y="38.59" width="9.52" height="9.53"/><rect class="cls-1" x="86.22" y="48.12" width="9.52" height="9.52"/><rect class="cls-1" x="95.74" y="38.59" width="9.52" height="9.53"/><rect class="cls-1" x="95.74" y="48.12" width="9.52" height="9.52"/><rect class="cls-1" x="114.79" y="57.64" width="9.52" height="9.53"/><rect class="cls-1" x="105.26" y="57.64" width="9.53" height="9.53"/><rect class="cls-1" x="86.22" y="57.64" width="9.52" height="9.53"/><rect class="cls-1" x="95.74" y="57.64" width="9.52" height="9.53"/><rect class="cls-1" x="76.69" y="57.64" width="9.53" height="9.53"/><rect class="cls-1" x="124.31" y="67.17" width="9.52" height="9.52"/><rect class="cls-1" x="114.79" y="67.17" width="9.52" height="9.52"/><rect class="cls-1" x="105.26" y="67.17" width="9.53" height="9.52"/><rect class="cls-1" x="86.22" y="67.17" width="9.52" height="9.52"/><rect class="cls-1" x="95.74" y="67.17" width="9.52" height="9.52"/><rect class="cls-1" x="76.69" y="67.17" width="9.53" height="9.52"/><rect class="cls-1" x="67.17" y="67.17" width="9.52" height="9.52"/><rect class="cls-1" x="152.88" y="76.69" width="9.53" height="9.52"/><rect class="cls-1" x="162.41" y="76.69" width="9.52" height="9.52"/><rect class="cls-1" x="143.36" y="76.69" width="9.52" height="9.52"/><rect class="cls-1" x="114.79" y="76.69" width="9.52" height="9.52"/><rect class="cls-1" x="105.26" y="76.69" width="9.53" height="9.52"/><rect class="cls-1" x="86.22" y="76.69" width="9.52" height="9.52"/><rect class="cls-1" x="95.74" y="76.69" width="9.52" height="9.52"/><rect class="cls-1" x="76.69" y="76.69" width="9.53" height="9.52"/><rect class="cls-1" x="67.17" y="76.69" width="9.52" height="9.52"/><rect class="cls-1" x="57.64" y="76.69" width="9.53" height="9.52"/><rect class="cls-1" x="38.6" y="76.69" width="9.52" height="9.52"/><rect class="cls-1" x="48.12" y="76.69" width="9.52" height="9.52"/><rect class="cls-1" x="29.07" y="76.69" width="9.53" height="9.52"/><rect class="cls-1" x="152.88" y="86.21" width="9.53" height="9.53"/><rect class="cls-1" x="143.36" y="86.21" width="9.52" height="9.53"/><rect class="cls-1" x="133.83" y="86.21" width="9.53" height="9.53"/><rect class="cls-1" x="133.83" y="76.69" width="9.53" height="9.52"/><rect class="cls-1" x="124.31" y="86.21" width="9.52" height="9.53"/><rect class="cls-1" x="124.31" y="76.69" width="9.52" height="9.52"/><rect class="cls-1" x="114.79" y="86.21" width="9.52" height="9.53"/><rect class="cls-1" x="105.26" y="86.21" width="9.53" height="9.53"/><rect class="cls-1" x="95.74" y="86.21" width="9.52" height="9.53"/><rect class="cls-1" x="86.22" y="86.21" width="9.52" height="9.53"/><rect class="cls-1" x="76.69" y="86.21" width="9.53" height="9.53"/><rect class="cls-1" x="67.17" y="86.21" width="9.52" height="9.53"/><rect class="cls-1" x="57.64" y="86.21" width="9.53" height="9.53"/><rect class="cls-1" x="38.6" y="86.21" width="9.52" height="9.53"/><rect class="cls-1" x="48.12" y="86.21" width="9.52" height="9.53"/><rect class="cls-1" x="143.36" y="95.74" width="9.52" height="9.52"/><rect class="cls-1" x="133.83" y="95.74" width="9.53" height="9.52"/><rect class="cls-1" x="124.31" y="95.74" width="9.52" height="9.52"/><rect class="cls-1" x="114.79" y="95.74" width="9.52" height="9.52"/><rect class="cls-1" x="105.26" y="95.74" width="9.53" height="9.52"/><rect class="cls-1" x="95.74" y="95.74" width="9.52" height="9.52"/><rect class="cls-1" x="86.22" y="95.74" width="9.52" height="9.52"/><rect class="cls-1" x="76.69" y="95.74" width="9.53" height="9.52"/><rect class="cls-1" x="67.17" y="95.74" width="9.52" height="9.52"/><rect class="cls-1" x="48.12" y="95.74" width="9.52" height="9.52"/><rect class="cls-1" x="57.64" y="95.74" width="9.53" height="9.52"/><rect class="cls-1" x="133.83" y="105.26" width="9.53" height="9.52"/><rect class="cls-1" x="114.79" y="105.26" width="9.52" height="9.52"/><rect class="cls-1" x="105.26" y="105.26" width="9.53" height="9.52"/><rect class="cls-1" x="95.74" y="105.26" width="9.52" height="9.52"/><rect class="cls-1" x="86.22" y="105.26" width="9.52" height="9.52"/><rect class="cls-1" x="76.69" y="105.26" width="9.53" height="9.52"/><rect class="cls-1" x="67.17" y="105.26" width="9.52" height="9.52"/><rect class="cls-1" x="57.64" y="105.26" width="9.53" height="9.52"/><rect class="cls-1" x="124.31" y="114.78" width="9.52" height="9.53"/><rect class="cls-1" x="124.31" y="105.26" width="9.52" height="9.52"/><rect class="cls-1" x="114.79" y="114.78" width="9.52" height="9.53"/><rect class="cls-1" x="105.26" y="114.78" width="9.53" height="9.53"/><rect class="cls-1" x="95.74" y="114.78" width="9.52" height="9.53"/><rect class="cls-1" x="86.22" y="114.78" width="9.52" height="9.53"/><rect class="cls-1" x="76.69" y="114.78" width="9.53" height="9.53"/><rect class="cls-1" x="67.17" y="114.78" width="9.52" height="9.53"/><rect class="cls-1" x="143.36" y="152.88" width="9.52" height="9.52"/><rect class="cls-1" x="133.83" y="162.4" width="9.53" height="9.53"/><rect class="cls-1" x="133.83" y="133.83" width="9.53" height="9.53"/><rect class="cls-1" x="133.83" y="152.88" width="9.53" height="9.52"/><rect class="cls-1" x="133.83" y="143.36" width="9.53" height="9.52"/><rect class="cls-1" x="124.31" y="143.36" width="9.52" height="9.52"/><rect class="cls-1" x="124.31" y="152.88" width="9.52" height="9.52"/><rect class="cls-1" x="124.31" y="133.83" width="9.52" height="9.53"/><rect class="cls-1" x="124.31" y="124.31" width="9.52" height="9.52"/><rect class="cls-1" x="114.79" y="133.83" width="9.52" height="9.53"/><rect class="cls-1" x="114.79" y="143.36" width="9.52" height="9.52"/><rect class="cls-1" x="114.79" y="124.31" width="9.52" height="9.52"/><rect class="cls-1" x="105.26" y="133.83" width="9.53" height="9.53"/><rect class="cls-1" x="105.26" y="124.31" width="9.53" height="9.52"/><rect class="cls-1" x="95.74" y="124.31" width="9.52" height="9.52"/><rect class="cls-1" x="86.22" y="124.31" width="9.52" height="9.52"/><rect class="cls-1" x="86.22" y="133.83" width="9.52" height="9.53"/><rect class="cls-1" x="76.69" y="143.36" width="9.53" height="9.52"/><rect class="cls-1" x="76.69" y="133.83" width="9.53" height="9.53"/><rect class="cls-1" x="76.69" y="124.31" width="9.53" height="9.52"/><rect class="cls-1" x="67.17" y="124.31" width="9.52" height="9.52"/><rect class="cls-1" x="67.17" y="152.88" width="9.52" height="9.52"/><rect class="cls-1" x="57.64" y="143.36" width="9.53" height="9.52"/><rect class="cls-1" x="48.12" y="152.88" width="9.52" height="9.52"/><rect class="cls-1" x="67.17" y="143.36" width="9.52" height="9.52"/><rect class="cls-1" x="57.64" y="162.4" width="9.53" height="9.53"/><rect class="cls-1" x="57.64" y="133.83" width="9.53" height="9.53"/><rect class="cls-1" x="57.64" y="152.88" width="9.53" height="9.52"/><rect class="cls-1" x="67.17" y="133.83" width="9.52" height="9.53"/><rect x="171.93" y="86.21" width="9.52" height="9.53"/><rect x="171.93" y="76.69" width="9.52" height="9.52"/><rect x="162.41" y="95.74" width="9.52" height="9.52"/><rect x="162.41" y="86.21" width="9.52" height="9.53"/><rect x="162.41" y="67.17" width="9.52" height="9.52"/><rect x="152.88" y="162.4" width="9.53" height="9.53"/><rect x="152.88" y="152.88" width="9.53" height="9.52"/><rect x="152.88" y="143.36" width="9.53" height="9.52"/><rect x="152.88" y="105.26" width="9.53" height="9.52"/><rect x="152.88" y="95.74" width="9.53" height="9.52"/><rect x="152.88" y="67.17" width="9.53" height="9.52"/><rect x="143.36" y="171.93" width="9.52" height="9.52"/><rect x="143.36" y="162.4" width="9.52" height="9.53"/><rect x="143.36" y="143.36" width="9.52" height="9.52"/><rect x="143.36" y="133.83" width="9.52" height="9.53"/><rect x="143.36" y="105.26" width="9.52" height="9.52"/><rect x="143.36" y="67.17" width="9.52" height="9.52"/><rect x="133.83" y="171.93" width="9.53" height="9.52"/><rect x="133.83" y="124.31" width="9.53" height="9.52"/><rect x="133.83" y="114.78" width="9.53" height="9.53"/><rect x="133.83" y="67.17" width="9.53" height="9.52"/><rect x="133.83" y="57.64" width="9.53" height="9.53"/><rect x="124.31" y="162.4" width="9.52" height="9.53"/><rect x="124.31" y="57.64" width="9.52" height="9.53"/><rect x="124.31" y="48.12" width="9.52" height="9.52"/><rect x="114.79" y="162.4" width="9.52" height="9.53"/><rect x="114.79" y="152.88" width="9.52" height="9.52"/><rect x="114.79" y="48.12" width="9.52" height="9.52"/><rect x="114.79" y="38.59" width="9.52" height="9.53"/><rect x="105.26" y="152.88" width="9.53" height="9.52"/><rect x="105.26" y="143.36" width="9.53" height="9.52"/><rect x="105.26" y="29.07" width="9.53" height="9.52"/><rect x="105.26" y="19.55" width="9.53" height="9.52"/><rect x="95.74" y="143.36" width="9.52" height="9.52"/><rect x="95.74" y="133.83" width="9.52" height="9.53"/><rect x="95.74" y="19.55" width="9.52" height="9.52"/><rect x="95.74" y="10.02" width="9.52" height="9.53"/><rect x="86.22" y="152.88" width="9.52" height="9.52"/><rect x="86.22" y="143.36" width="9.52" height="9.52"/><rect x="86.22" y="29.07" width="9.52" height="9.52"/><rect x="86.22" y="19.55" width="9.52" height="9.52"/><rect x="76.69" y="162.4" width="9.53" height="9.53"/><rect x="76.69" y="152.88" width="9.53" height="9.52"/><rect x="76.69" y="48.12" width="9.53" height="9.52"/><rect x="76.69" y="38.59" width="9.53" height="9.53"/><rect x="67.17" y="162.4" width="9.52" height="9.53"/><rect x="67.17" y="57.64" width="9.52" height="9.53"/><rect x="67.17" y="48.12" width="9.52" height="9.52"/><rect x="57.64" y="171.93" width="9.53" height="9.52"/><rect x="57.64" y="124.31" width="9.53" height="9.52"/><rect x="57.64" y="114.78" width="9.53" height="9.53"/><rect x="57.64" y="67.17" width="9.53" height="9.52"/><rect x="57.64" y="57.64" width="9.53" height="9.53"/><rect x="48.12" y="171.93" width="9.52" height="9.52"/><rect x="48.12" y="162.4" width="9.52" height="9.53"/><rect x="48.12" y="143.36" width="9.52" height="9.52"/><rect x="48.12" y="133.83" width="9.52" height="9.53"/><rect x="48.12" y="105.26" width="9.52" height="9.52"/><rect x="48.12" y="67.17" width="9.52" height="9.52"/><rect x="38.6" y="162.4" width="9.52" height="9.53"/><rect x="38.6" y="152.88" width="9.52" height="9.52"/><rect x="38.6" y="143.36" width="9.52" height="9.52"/><rect x="38.6" y="105.26" width="9.52" height="9.52"/><rect x="38.6" y="95.74" width="9.52" height="9.52"/><rect x="38.6" y="67.17" width="9.52" height="9.52"/><rect x="29.07" y="95.74" width="9.53" height="9.52"/><rect x="29.07" y="86.21" width="9.53" height="9.53"/><rect x="29.07" y="67.17" width="9.53" height="9.52"/><rect x="19.55" y="86.21" width="9.52" height="9.53"/><rect x="19.55" y="76.69" width="9.52" height="9.52"/></svg>